<svg width="274" height="286" viewBox="0 0 274 286" fill="none" xmlns="http://www.w3.org/2000/svg">
    <path d="M193.915 151.165L182.838 117.731L193.996 120.518L205.577 154.077L193.915 151.165ZM183.798 141.144C178.807 139.897 174.691 137.697 171.451 134.542C168.259 131.4 166.068 127.615 164.879 123.189C163.702 118.714 163.755 113.909 165.038 108.774C166.32 103.638 168.526 99.3968 171.657 96.0487C174.799 92.6526 178.518 90.3181 182.813 89.0452C187.155 87.7843 191.822 87.7771 196.814 89.0235C201.853 90.2819 205.992 92.4883 209.233 95.6428C212.521 98.8093 214.729 102.624 215.858 107.087C216.999 111.501 216.928 116.276 215.646 121.412C214.364 126.547 212.175 130.818 209.081 134.227C205.998 137.587 202.262 139.891 197.871 141.14C193.528 142.401 188.837 142.402 183.798 141.144ZM185.973 132.433C189.141 133.224 192.05 133.211 194.701 132.395C197.365 131.53 199.644 129.958 201.539 127.678C203.434 125.398 204.825 122.482 205.712 118.931C206.61 115.331 206.754 112.104 206.141 109.249C205.54 106.345 204.262 103.91 202.306 101.943C200.35 99.9762 197.788 98.5972 194.62 97.8062C191.549 97.0392 188.687 97.0639 186.036 97.8805C183.385 98.697 181.088 100.239 179.145 102.507C177.262 104.739 175.871 107.655 174.972 111.255C174.085 114.806 173.942 118.033 174.543 120.937C175.191 123.852 176.488 126.317 178.432 128.332C180.388 130.299 182.902 131.666 185.973 132.433Z" fill="#53A02F"/>
    <mask id="mask0_2_61" style="mask-type:luminance" maskUnits="userSpaceOnUse" x="157" y="68" width="77" height="77">
        <g clip-path="url(#clip0_2_61)">
            <path d="M195.1 68C174 68 157 85.1 157 106.2C157 127.2 174 144.3 195.1 144.3C216.2 144.3 233.3 127.2 233.3 106.2C233.3 85.1 216.2 68 195.1 68Z" fill="white"/>
        </g>
    </mask>
    <g mask="url(#mask0_2_61)">
        <path d="M156.962 68.0059H233.252V144.296H156.962V68.0059Z" fill="#53A02F"/>
    </g>
    <g clip-path="url(#clip1_2_61)">
        <path d="M208.86 72.0276C205.335 72.0276 202.478 74.8847 202.478 78.4094C202.478 81.9341 205.335 84.7912 208.86 84.7912C212.384 84.7912 215.241 81.9341 215.241 78.4094C215.241 74.8847 212.384 72.0276 208.86 72.0276ZM197.018 84.7536C196.188 84.7568 195.393 85.0835 194.799 85.6636L177.947 101.618C176.507 102.976 176.638 105.304 178.222 106.492L189.714 115.105V132.655C189.65 136.97 196.157 136.97 196.096 132.655V113.509C196.098 112.505 195.627 111.559 194.825 110.954L189.926 107.277L201.528 96.2926L206.304 102.665C206.909 103.468 207.855 103.939 208.86 103.937H218.432C222.747 104.001 222.747 97.4936 218.432 97.5549H210.455L205.669 91.1731L201.842 86.0625C201.267 85.2737 200.362 84.7912 199.386 84.7536L197.018 84.7536ZM164.187 110.319C153.613 110.319 145.041 118.891 145.041 129.464C145.041 140.038 153.613 148.61 164.187 148.61C174.761 148.61 183.332 140.038 183.332 129.464C183.332 118.891 174.761 110.319 164.187 110.319ZM221.623 110.319C211.049 110.319 202.478 118.891 202.478 129.464C202.478 140.038 211.049 148.61 221.623 148.61C232.197 148.61 240.769 140.038 240.769 129.464C240.769 118.891 232.197 110.319 221.623 110.319ZM164.187 116.7C171.236 116.7 176.95 122.415 176.95 129.464C176.95 136.513 171.236 142.228 164.187 142.228C157.137 142.228 151.423 136.513 151.423 129.464C151.423 122.415 157.137 116.7 164.187 116.7ZM221.623 116.7C228.673 116.7 234.387 122.415 234.387 129.464C234.387 136.513 228.673 142.228 221.623 142.228C214.574 142.228 208.86 136.513 208.86 129.464C208.86 122.415 214.574 116.7 221.623 116.7Z" fill="white"/>
    </g>
    <defs>
        <clipPath id="clip0_2_61">
            <rect width="76.3" height="76.3" fill="white" transform="translate(157 68)"/>
        </clipPath>
        <clipPath id="clip1_2_61">
            <rect width="96" height="76.5" fill="white" transform="translate(145 72)"/>
        </clipPath>
    </defs>
</svg>
